<!-- Generated by IcoMoon.io -->
<svg version="1.1" xmlns="http://www.w3.org/2000/svg" width="32" height="32" viewBox="0 0 32 32">
<title>TechOpenSolve-favicon</title>
<path d="M16.49 0.557c-0.304 0.099-0.602 0.349-0.742 0.621-0.23 0.454-0.125 1.046 0.256 1.418l0.157 0.154v6.445l0.157 0.166c0.192 0.202 0.272 0.358 0.323 0.614 0.106 0.528-0.179 1.088-0.666 1.315-0.253 0.118-0.678 0.138-0.934 0.042-0.394-0.147-0.691-0.502-0.768-0.915-0.074-0.394 0.035-0.746 0.323-1.053l0.189-0.205v-2.928l0.157-0.166c0.192-0.202 0.272-0.358 0.326-0.618 0.080-0.384-0.051-0.797-0.342-1.082-0.483-0.477-1.222-0.47-1.706 0.013-0.474 0.477-0.458 1.261 0.035 1.722l0.154 0.144-0.006 1.318-0.010 1.315-0.528 0.179c-0.291 0.099-0.669 0.24-0.838 0.31l-0.314 0.134v-0.931l0.144-0.128c0.086-0.077 0.182-0.208 0.246-0.339 0.099-0.198 0.106-0.237 0.106-0.534 0-0.278-0.010-0.342-0.086-0.502-0.115-0.25-0.314-0.454-0.557-0.573-0.621-0.307-1.344-0.054-1.638 0.573-0.077 0.16-0.086 0.224-0.086 0.502 0 0.298 0.006 0.336 0.106 0.534 0.064 0.131 0.16 0.262 0.246 0.339l0.144 0.128v6.154l0.15-0.186c0.314-0.39 0.614-0.704 0.944-0.986 0.794-0.682 1.514-1.091 2.47-1.411 1.987-0.659 4.189-0.406 5.987 0.691 0.634 0.387 1.424 1.082 1.866 1.642l0.198 0.25v-8.054l0.147-0.141c0.080-0.080 0.192-0.23 0.246-0.336 0.096-0.179 0.102-0.214 0.102-0.528 0-0.317-0.006-0.349-0.106-0.55-0.122-0.25-0.32-0.442-0.582-0.566-0.154-0.074-0.218-0.083-0.496-0.083-0.288 0-0.339 0.010-0.506 0.090-0.243 0.122-0.467 0.346-0.586 0.582-0.083 0.173-0.093 0.224-0.093 0.512 0 0.298 0.006 0.336 0.102 0.531 0.061 0.122 0.166 0.269 0.25 0.346l0.144 0.131v2.845l-0.342-0.147c-0.32-0.134-1.034-0.387-1.232-0.438l-0.090-0.019v0.486l0.173 0.189c0.234 0.253 0.317 0.47 0.32 0.829 0 0.342-0.077 0.557-0.298 0.803-0.467 0.522-1.245 0.544-1.747 0.045-0.48-0.477-0.477-1.219 0.006-1.706l0.17-0.17v-6.65l0.147-0.147c0.080-0.080 0.192-0.243 0.246-0.362 0.093-0.192 0.102-0.243 0.099-0.486-0.003-0.358-0.086-0.579-0.32-0.829-0.234-0.253-0.48-0.365-0.829-0.378-0.154-0.006-0.31 0.010-0.39 0.035zM17.107 1.181c0.074 0.032 0.173 0.115 0.224 0.182 0.083 0.106 0.093 0.147 0.093 0.349 0 0.192-0.013 0.246-0.080 0.346-0.115 0.166-0.275 0.246-0.496 0.246s-0.381-0.080-0.496-0.246c-0.067-0.099-0.080-0.154-0.080-0.346 0-0.202 0.010-0.243 0.093-0.349 0.109-0.144 0.304-0.243 0.483-0.243 0.070 0 0.189 0.029 0.259 0.061zM14.41 4.714c0.221 0.125 0.339 0.442 0.262 0.698-0.067 0.224-0.326 0.41-0.57 0.413-0.134 0-0.323-0.070-0.419-0.154-0.157-0.141-0.224-0.477-0.134-0.688 0.051-0.128 0.246-0.304 0.365-0.33 0.048-0.010 0.102-0.022 0.118-0.029 0.064-0.026 0.259 0.022 0.378 0.090zM21.629 5.142c0.458 0.365 0.211 1.082-0.371 1.075-0.195 0-0.33-0.070-0.467-0.24-0.16-0.198-0.154-0.531 0.016-0.749 0.176-0.224 0.592-0.269 0.822-0.086zM11.28 7.037c0.237 0.109 0.336 0.272 0.336 0.554 0 0.336-0.243 0.57-0.589 0.57-0.358 0-0.595-0.237-0.595-0.595 0-0.15 0.080-0.342 0.182-0.435 0.17-0.154 0.451-0.192 0.666-0.093z"></path>
<path d="M7.318 10.070c-1.053 1.053-1.584 1.603-1.626 1.69-0.074 0.157-0.077 0.394-0.013 0.554 0.032 0.077 0.291 0.358 0.723 0.794l0.675 0.675-0.16 0.301c-0.291 0.544-0.669 1.485-0.806 2.003l-0.035 0.138h-1.942l-0.17 0.090c-0.138 0.070-0.189 0.122-0.259 0.259l-0.090 0.17v2.202c0 1.574 0.010 2.23 0.038 2.307 0.058 0.17 0.144 0.278 0.307 0.371l0.15 0.090 1.965 0.019 0.115 0.374c0.163 0.518 0.429 1.165 0.675 1.635l0.208 0.4-0.672 0.672c-0.429 0.429-0.691 0.72-0.72 0.794-0.067 0.154-0.064 0.416 0 0.547 0.070 0.138 3.104 3.181 3.245 3.251 0.179 0.093 0.326 0.106 0.499 0.048 0.134-0.042 0.253-0.147 0.845-0.736l0.688-0.685 0.432 0.221c0.534 0.275 0.87 0.413 1.504 0.627l0.496 0.166 0.016 1.011 0.016 1.008 0.096 0.138c0.054 0.074 0.16 0.17 0.237 0.211l0.144 0.074 4.557-0.016 0.141-0.096c0.074-0.054 0.173-0.163 0.218-0.24 0.080-0.144 0.080-0.147 0.090-1.123l0.010-0.982 0.198-0.054c0.416-0.115 1.085-0.381 1.642-0.653l0.579-0.285 0.653 0.656c0.358 0.358 0.704 0.678 0.765 0.71 0.173 0.090 0.32 0.106 0.499 0.051 0.147-0.042 0.278-0.166 1.747-1.622 1.546-1.533 1.594-1.584 1.642-1.754 0.054-0.192 0.038-0.336-0.051-0.512-0.032-0.061-0.352-0.406-0.714-0.765l-0.653-0.653 0.237-0.474c0.262-0.522 0.538-1.197 0.672-1.651l0.086-0.294 0.979-0.010c0.931-0.010 0.986-0.013 1.107-0.080 0.16-0.086 0.256-0.186 0.32-0.336 0.042-0.106 0.048-0.406 0.048-2.336v-2.218l-0.077-0.163c-0.074-0.16-0.17-0.25-0.349-0.326-0.064-0.026-0.374-0.038-1.059-0.038h-0.97l-0.058-0.218c-0.112-0.416-0.387-1.114-0.662-1.67l-0.275-0.56 0.698-0.704c0.682-0.688 0.698-0.707 0.733-0.88 0.029-0.144 0.029-0.205-0.013-0.336-0.042-0.147-0.16-0.275-1.638-1.754-0.877-0.874-1.613-1.59-1.635-1.59-0.029 0-0.038 1.165-0.038 5.44 0 3.523-0.013 5.552-0.032 5.754-0.285 2.682-2.045 4.982-4.55 5.958-0.918 0.358-1.757 0.499-2.806 0.47-0.819-0.022-1.405-0.125-2.163-0.378-0.374-0.125-1.171-0.518-1.536-0.755-1.514-0.989-2.627-2.547-3.053-4.266-0.221-0.886-0.205-0.426-0.218-6.618-0.010-4.266-0.019-5.606-0.048-5.606-0.022 0-0.742 0.701-1.603 1.558z"></path>
<path d="M15.312 9.658c-0.128 0.042-0.259 0.144-0.336 0.256-0.112 0.163-0.115 0.49-0.003 0.65 0.301 0.438 0.96 0.33 1.088-0.179 0.112-0.445-0.323-0.864-0.749-0.726z"></path>
<path d="M18.16 9.808c-0.016 0.006-0.070 0.019-0.118 0.029-0.118 0.026-0.314 0.202-0.365 0.33-0.147 0.352 0.080 0.768 0.451 0.829 0.509 0.080 0.858-0.435 0.614-0.906-0.083-0.16-0.442-0.333-0.582-0.282z"></path>
<path d="M11.728 14.826c-0.010 0.022-0.013 0.47-0.010 0.998l0.010 0.96 2.976 0.032 0.032 7.968 1.2 0.010c0.659 0.003 1.232 0 1.27-0.010l0.074-0.016 0.006-3.978 0.010-3.974 2.976-0.032v-1.984l-4.266-0.010c-3.414-0.006-4.269 0-4.278 0.035z"></path>
</svg>
